<svg width="24" height="24" viewBox="0 0 24 24" fill="none" xmlns="http://www.w3.org/2000/svg">
<g clip-path="url(#clip0_111_3729)">
<path fill-rule="evenodd" clip-rule="evenodd" d="M11.2878 3.37412C11.2878 3.1079 11.5075 2.89209 11.7786 2.89209C16.6582 2.89209 20.6129 6.77614 20.6129 11.5686C20.6129 16.3611 16.6582 20.2451 11.7786 20.2451C6.899 20.2451 2.94434 16.3611 2.94434 11.5686C2.94434 10.3902 3.18342 9.2722 3.61461 8.24662C3.71807 8.00056 4.00504 7.88345 4.25557 7.98506C4.50611 8.08667 4.62535 8.36851 4.52189 8.61458C4.13837 9.52675 3.92592 10.52 3.92592 11.5686C3.92592 15.8286 7.44112 19.2811 11.7786 19.2811C16.1161 19.2811 19.6313 15.8286 19.6313 11.5686C19.6313 7.30857 16.1161 3.85615 11.7786 3.85615C11.5075 3.85615 11.2878 3.64034 11.2878 3.37412Z" fill="#2B2B2B"/>
<path fill-rule="evenodd" clip-rule="evenodd" d="M7.68457 4.0236C8.19436 3.75823 8.72703 3.53666 9.29226 3.37012L9.50381 4.06267C8.9893 4.21426 8.50111 4.41688 8.02932 4.66246L7.68457 4.0236Z" fill="#2B2B2B"/>
<path fill-rule="evenodd" clip-rule="evenodd" d="M5.00879 6.17914C5.37466 5.73377 5.79053 5.33072 6.24008 4.96948L6.70626 5.52909C6.29201 5.86197 5.9128 6.23016 5.58175 6.63316L5.00879 6.17914Z" fill="#2B2B2B"/>
<path fill-rule="evenodd" clip-rule="evenodd" d="M6.90315 9.58403C6.98099 9.39958 7.19634 9.31203 7.38414 9.38849L11.9191 11.2347C12.1069 11.3111 12.196 11.5226 12.1182 11.7071C12.0403 11.8915 11.825 11.979 11.6372 11.9026L7.10224 10.0564C6.91444 9.97997 6.82531 9.76847 6.90315 9.58403Z" fill="#2B2B2B"/>
<path fill-rule="evenodd" clip-rule="evenodd" d="M11.7783 6.38672C11.9815 6.38672 12.1463 6.54858 12.1463 6.74824V11.5685C12.1463 11.7682 11.9815 11.93 11.7783 11.93C11.575 11.93 11.4102 11.7682 11.4102 11.5685V6.74824C11.4102 6.54858 11.575 6.38672 11.7783 6.38672Z" fill="#2B2B2B"/>
<path d="M11.7782 12.2915C12.1848 12.2915 12.5144 11.9678 12.5144 11.5685C12.5144 11.1692 12.1848 10.8455 11.7782 10.8455C11.3716 10.8455 11.042 11.1692 11.042 11.5685C11.042 11.9678 11.3716 12.2915 11.7782 12.2915Z" fill="#2B2B2B"/>
<path d="M3.3421 8.069L4.18135 7.73158C4.30896 7.68338 4.45129 7.74122 4.50037 7.86173L4.84392 8.686C4.87828 8.76312 4.79484 8.84507 4.71632 8.81133L3.3421 8.24735C3.26357 8.21361 3.26357 8.10274 3.3421 8.069Z" fill="#2B2B2B"/>
</g>
<defs>
<clipPath id="clip0_111_3729">
<rect width="23.5581" height="23.1374" fill="white"/>
</clipPath>
</defs>
</svg>
