<svg width="25" height="24" viewBox="0 0 25 24" fill="none" xmlns="http://www.w3.org/2000/svg">
<path d="M22 11.9988C21.9998 10.0878 21.452 8.21692 20.4215 6.60757C19.391 4.99822 17.921 3.71784 16.1854 2.91802C14.4498 2.11819 12.5214 1.83241 10.6285 2.09451C8.73552 2.35661 6.95732 3.15561 5.50437 4.39693C4.05142 5.63825 2.98457 7.26989 2.43013 9.09869C1.87569 10.9275 1.85687 12.8769 2.37591 14.716C2.89494 16.5552 3.93009 18.2071 5.35881 19.4763C6.78752 20.7454 8.54997 21.5786 10.4375 21.8772V14.8897H7.89833V11.9988H10.4375V9.79551C10.4375 7.28968 11.9308 5.90468 14.215 5.90468C14.9649 5.91501 15.713 5.98019 16.4533 6.09968V8.56135H15.1925C14.9776 8.53272 14.759 8.55282 14.5529 8.62015C14.3469 8.68747 14.1586 8.80031 14.002 8.95029C13.8455 9.10027 13.7247 9.28355 13.6486 9.48656C13.5725 9.68957 13.5431 9.90709 13.5625 10.123V11.9988H16.3333L15.89 14.8897H13.5567V21.8772C15.91 21.5063 18.0537 20.3074 19.6016 18.4964C21.1495 16.6854 22.0001 14.3813 22 11.9988Z" fill="#1977F3"/>
</svg>
