<svg width="24" height="24" viewBox="0 0 24 24" fill="none" xmlns="http://www.w3.org/2000/svg">
<path d="M12 3.80133C14.6667 3.80133 14.9867 3.812 16.0413 3.86C16.6742 3.86785 17.3011 3.9842 17.8947 4.204C18.3258 4.37039 18.7173 4.62516 19.0441 4.95192C19.3708 5.27869 19.6256 5.67021 19.792 6.10133C20.0122 6.69616 20.1286 7.32442 20.136 7.95867C20.184 9.01333 20.1947 9.32933 20.1947 12C20.1947 14.6707 20.184 14.9867 20.136 16.0413C20.1294 16.674 20.0144 17.3009 19.796 17.8947C19.6296 18.3269 19.3745 18.7195 19.047 19.047C18.7195 19.3745 18.3269 19.6296 17.8947 19.796C17.2998 20.0162 16.6716 20.1326 16.0373 20.14C14.9827 20.188 14.6667 20.1987 11.996 20.1987C9.32533 20.1987 9.00933 20.188 7.95467 20.14C7.32042 20.1326 6.69216 20.0162 6.09733 19.796C5.66656 19.6287 5.27557 19.3731 4.9495 19.0457C4.62342 18.7182 4.36948 18.3261 4.204 17.8947C3.98375 17.2998 3.86739 16.6716 3.86 16.0373C3.812 14.9827 3.80133 14.6667 3.80133 11.996C3.80133 9.32533 3.812 9.00933 3.86 7.95467C3.86739 7.32042 3.98375 6.69216 4.204 6.09733C4.371 5.66682 4.62619 5.27599 4.95316 4.94993C5.28014 4.62387 5.67169 4.36979 6.10267 4.204C6.69749 3.98375 7.32575 3.86739 7.96 3.86C9.01467 3.812 9.33067 3.80133 12.0013 3.80133M12.0013 2C9.28533 2 8.94533 2.012 7.87867 2.06C7.04884 2.07672 6.22787 2.23406 5.45067 2.52533C4.7863 2.7821 4.18291 3.17483 3.67916 3.67835C3.17541 4.18188 2.7824 4.78509 2.52533 5.44933C2.23406 6.22654 2.07672 7.04751 2.06 7.87733C2.012 8.944 2 9.284 2 12C2 14.716 2.012 15.056 2.06 16.1227C2.07672 16.9525 2.23406 17.7735 2.52533 18.5507C2.78225 19.2148 3.17505 19.8179 3.67857 20.3214C4.18209 20.8249 4.78522 21.2177 5.44933 21.4747C6.22654 21.7659 7.04751 21.9233 7.87733 21.94C8.944 21.988 9.284 22 12 22C14.716 22 15.056 21.988 16.1227 21.94C16.9525 21.9233 17.7735 21.7659 18.5507 21.4747C19.2148 21.2177 19.8179 20.8249 20.3214 20.3214C20.8249 19.8179 21.2177 19.2148 21.4747 18.5507C21.7659 17.7735 21.9233 16.9525 21.94 16.1227C21.988 15.056 22 14.716 22 12C22 9.284 21.988 8.944 21.94 7.87733C21.9233 7.04751 21.7659 6.22654 21.4747 5.44933C21.2177 4.78522 20.8249 4.18209 20.3214 3.67857C19.8179 3.17505 19.2148 2.78225 18.5507 2.52533C17.7735 2.23406 16.9525 2.07672 16.1227 2.06C15.056 2.012 14.716 2 12 2H12.0013Z" fill="#001620"/>
<path d="M12.0005 6.61816C10.9362 6.61816 9.89572 6.93377 9.01076 7.52508C8.12581 8.11638 7.43608 8.95685 7.02878 9.94016C6.62148 10.9235 6.5149 12.0055 6.72254 13.0493C6.93018 14.0932 7.44271 15.0521 8.1953 15.8047C8.94789 16.5573 9.90676 17.0698 10.9506 17.2774C11.9945 17.4851 13.0765 17.3785 14.0598 16.9712C15.0431 16.5639 15.8836 15.8742 16.4749 14.9892C17.0662 14.1043 17.3818 13.0638 17.3818 11.9995C17.3818 10.5723 16.8149 9.20351 15.8057 8.19432C14.7965 7.18512 13.4277 6.61816 12.0005 6.61816ZM12.0005 15.4928C11.3096 15.4928 10.6342 15.288 10.0597 14.9041C9.48521 14.5203 9.03747 13.9747 8.77307 13.3363C8.50867 12.698 8.43949 11.9956 8.57428 11.318C8.70907 10.6403 9.04176 10.0179 9.53031 9.52933C10.0189 9.04078 10.6413 8.70808 11.319 8.57329C11.9966 8.4385 12.699 8.50768 13.3373 8.77208C13.9756 9.03649 14.5212 9.48423 14.9051 10.0587C15.2889 10.6332 15.4938 11.3086 15.4938 11.9995C15.4938 12.926 15.1258 13.8145 14.4706 14.4697C13.8155 15.1248 12.927 15.4928 12.0005 15.4928Z" fill="#001620"/>
<path d="M17.375 7.76268C18.0039 7.76268 18.5137 7.25289 18.5137 6.62402C18.5137 5.99515 18.0039 5.48535 17.375 5.48535C16.7461 5.48535 16.2363 5.99515 16.2363 6.62402C16.2363 7.25289 16.7461 7.76268 17.375 7.76268Z" fill="#001620"/>
</svg>
