<svg width="25" height="24" viewBox="0 0 25 24" fill="none" xmlns="http://www.w3.org/2000/svg">
<path fill-rule="evenodd" clip-rule="evenodd" d="M24.666 10.7342C24.666 5.36406 19.2848 1 12.6621 1C6.03941 1 0.666016 5.36722 0.666016 10.7342C0.666016 15.5469 4.93056 19.5793 10.6988 20.339C11.0889 20.4227 11.6212 20.5965 11.7554 20.9313C11.8491 21.2856 11.8627 21.6563 11.795 22.0164L11.6243 23.043L11.6196 23.0703C11.5626 23.3954 11.4192 24.2138 12.6637 23.689C16.1402 21.8592 19.3181 19.511 22.0883 16.7252C23.6952 15.1403 24.6201 12.9908 24.666 10.7342ZM20.6759 13.8343C20.7366 13.8343 20.7948 13.8102 20.8377 13.7672C20.8807 13.7243 20.9048 13.666 20.9048 13.6053V12.7539C20.9048 12.6932 20.8807 12.6349 20.8377 12.592C20.7948 12.549 20.7366 12.525 20.6759 12.525H18.3856V11.6389H20.6759C20.7366 11.6389 20.7948 11.6147 20.8377 11.5718C20.8807 11.5288 20.9048 11.4706 20.9048 11.4099V10.5586C20.9048 10.4978 20.8807 10.4396 20.8377 10.3966C20.7948 10.3537 20.7366 10.3295 20.6759 10.3295H18.3856V9.44655H20.6759C20.7366 9.44655 20.7948 9.42241 20.8377 9.37946C20.8807 9.33651 20.9048 9.27834 20.9048 9.2176V8.36626C20.9048 8.30552 20.8807 8.24725 20.8377 8.2043C20.7948 8.16135 20.7366 8.13721 20.6759 8.13721H17.3052C17.2445 8.13721 17.1862 8.16135 17.1433 8.2043C17.1003 8.24725 17.0762 8.30552 17.0762 8.36626V13.5927C17.0762 13.6534 17.1003 13.7117 17.1433 13.7546C17.1862 13.7976 17.2445 13.8217 17.3052 13.8217H20.6759V13.8343ZM8.37678 13.7666C8.33383 13.8096 8.27566 13.8337 8.21492 13.8337V13.829H4.84429C4.78355 13.829 4.72528 13.8049 4.68233 13.7619C4.63938 13.719 4.61523 13.6607 4.61523 13.5999V8.36873C4.61523 8.30799 4.63938 8.24973 4.68233 8.20678C4.72528 8.16383 4.78355 8.13978 4.84429 8.13978H5.69562C5.75636 8.13978 5.81463 8.16383 5.85758 8.20678C5.90053 8.24973 5.92468 8.30799 5.92468 8.36873V12.5244H8.21492C8.27566 12.5244 8.33383 12.5484 8.37678 12.5914C8.41973 12.6343 8.44388 12.6926 8.44388 12.7533V13.6047C8.44388 13.6654 8.41973 13.7237 8.37678 13.7666ZM9.81368 8.14062H9.8121C9.45096 8.14062 9.1582 8.43339 9.1582 8.79452V13.1807C9.1582 13.5418 9.45096 13.8346 9.8121 13.8346H9.81368C10.1748 13.8346 10.4676 13.5418 10.4676 13.1807V8.79452C10.4676 8.43339 10.1748 8.14062 9.81368 8.14062ZM15.1787 8.14045H16.0301C16.0872 8.14559 16.1402 8.17189 16.1788 8.21429C16.2174 8.2567 16.2387 8.31206 16.2385 8.3694V13.6306C16.2385 13.6913 16.2144 13.7496 16.1715 13.7926C16.1285 13.8355 16.0703 13.8597 16.0095 13.8597H15.1629C15.1426 13.8596 15.1224 13.8569 15.1028 13.8517H15.087H15.076H15.065L15.0508 13.8423C15.0281 13.8269 15.0082 13.8077 14.9923 13.7854L12.5946 10.5459V13.6543C12.5946 13.7151 12.5706 13.7733 12.5276 13.8163C12.4847 13.8592 12.4264 13.8834 12.3657 13.8834H11.5143C11.4536 13.8834 11.3953 13.8592 11.3524 13.8163C11.3094 13.7733 11.2853 13.7151 11.2853 13.6543V8.41838C11.2853 8.35764 11.3094 8.29937 11.3524 8.25642C11.3953 8.21347 11.4536 8.18942 11.5143 8.18942H12.4352H12.4494H12.4573H12.4715H12.4842H12.4968L12.5094 8.19723L12.522 8.20832L12.5362 8.22258L12.5552 8.2462L14.9497 11.481V8.3694C14.9497 8.30866 14.9738 8.2504 15.0168 8.20745C15.0597 8.1645 15.118 8.14045 15.1787 8.14045Z" fill="#06C755"/>
</svg>
