<svg width="64" height="40" viewBox="0 0 64 40" fill="none" xmlns="http://www.w3.org/2000/svg">
<g clip-path="url(#clip0_111_3701)">
<path d="M4.42924 16.696C4.1733 16.696 3.96712 16.8998 3.96712 17.1529V17.5185C3.96712 23.9578 9.7685 28.8928 15.3068 22.9315C15.4846 22.7417 15.776 22.7276 15.968 22.9034C16.1315 23.058 16.16 23.3041 16.032 23.4868C15.385 24.4288 13.2664 26.7206 8.8016 26.7206C3.24906 26.7206 0 22.7276 0 17.5185C0 12.3093 3.24906 8.34448 8.8016 8.34448C15.4419 8.34448 16.2666 13.3708 16.2666 15.3392V16.239C16.2666 16.4921 16.0604 16.696 15.8045 16.696H4.42924ZM4.59987 15.3392H11.4748C11.7307 15.3392 11.944 15.1283 11.9369 14.8682C11.8232 11.297 11.1264 9.5958 8.84426 9.5958C6.5621 9.5958 4.70651 10.7487 4.14486 14.826C4.10931 15.0932 4.32259 15.3392 4.59987 15.3392Z" fill="#2B2B2B"/>
<path d="M23.0501 3.01584V26.2215C21.0594 26.2215 19.4455 24.6257 19.4455 22.6573V3.42357C19.4455 1.92621 18.7488 0.717068 16.2676 0.717068V0.105469H20.1067C21.7348 0.105469 23.0501 1.406 23.0501 3.01584Z" fill="#2B2B2B"/>
<path d="M32.7529 8.23901V26.2214H32.4187C30.6129 26.2214 29.1412 24.7733 29.1412 22.9807V11.8805C29.1412 10.2425 27.954 8.66784 25.9277 8.42179V8.24604H32.7458L32.7529 8.23901Z" fill="#2B2B2B"/>
<path d="M43.1485 4.49209V8.34446H46.682V9.70123H43.1485V26.2144C41.1578 26.2144 39.544 24.6186 39.544 22.6503V9.70123H36.1172V8.34446H39.544V5.53251C39.544 2.57293 41.0583 0 45.644 0C46.8668 0 47.8835 0.253076 48.7437 0.604569C48.5304 0.857645 48.31 1.10369 48.1323 1.35677C47.5209 1.10369 46.7957 0.963093 45.971 0.963093C43.5893 0.963093 43.1556 2.06678 43.1556 4.49209H43.1485Z" fill="#2B2B2B"/>
<path d="M52.0835 16.6961C51.8276 16.6961 51.6214 16.8999 51.6214 17.153V17.5186C51.6214 23.9579 57.4228 28.8929 62.9611 22.9316C63.1389 22.7418 63.4303 22.7277 63.6223 22.9035C63.7858 23.0581 63.8143 23.3042 63.6863 23.494C63.0393 24.436 60.9207 26.7277 56.4559 26.7277C50.8962 26.7277 47.6543 22.7347 47.6543 17.5256C47.6543 12.3165 50.9034 8.35864 56.4559 8.35864C63.0962 8.35864 63.9209 13.385 63.9209 15.3534V16.2532C63.9209 16.5063 63.7147 16.7101 63.4588 16.7101H52.0764L52.0835 16.6961ZM52.2471 15.3393H59.122C59.3779 15.3393 59.5912 15.1284 59.5841 14.8683C59.4703 11.2971 58.7736 9.5959 56.4914 9.5959C54.2093 9.5959 52.3537 10.7488 51.792 14.8261C51.7565 15.0933 51.9769 15.3393 52.2471 15.3393Z" fill="#2B2B2B"/>
<path fill-rule="evenodd" clip-rule="evenodd" d="M26.5247 0.133519C29.7737 -0.154706 32.3332 1.65197 32.3047 4.05619C32.2976 5.09661 31.7857 5.70118 30.8046 5.82772C29.8306 5.95426 28.9277 5.45514 28.5367 4.56234C28.3436 4.11567 28.158 3.66602 27.9723 3.21613L27.9723 3.21611L27.9722 3.21608L27.9722 3.21606L27.9722 3.21604L27.9722 3.21603C27.7546 2.68884 27.5369 2.16133 27.3067 1.63791C27.1626 1.31021 26.9861 0.992136 26.7968 0.651171L26.7968 0.651142L26.7967 0.650997L26.7967 0.65097L26.7966 0.650824L26.7966 0.650798C26.7058 0.487185 26.6121 0.3183 26.5176 0.140549L26.5247 0.133519ZM11.3477 36.485C11.3477 34.9033 12.4283 33.9121 13.58 33.9121C14.8384 33.9121 15.5494 34.8119 15.5494 36.2038C15.5494 36.3773 15.5302 36.5381 15.5161 36.6562L15.5138 36.6748H12.1795C12.2363 37.7152 12.8833 38.3831 13.8147 38.3831C14.2981 38.3831 14.6891 38.2425 15.0517 37.9964L15.3503 38.5377C14.9095 38.8189 14.3834 39.0439 13.7151 39.0439C12.407 39.0439 11.3477 38.1019 11.3477 36.485ZM14.8171 36.0773C14.8171 35.1001 14.3621 34.5658 13.5872 34.5658C12.8833 34.5658 12.2648 35.1212 12.1653 36.0773H14.8171ZM16.758 31.7609V37.9472C16.758 38.6432 17.014 39.0368 17.6325 39.0368C17.86 39.0368 17.9951 39.0087 18.1159 38.9665L17.9951 38.3338C17.9098 38.3549 17.8671 38.3549 17.8244 38.3549C17.6965 38.3549 17.5898 38.2565 17.5898 38.0034V31.7609H16.758ZM19.2188 32.4779C19.2188 32.1615 19.4463 31.9436 19.7733 31.9436C20.1003 31.9436 20.3278 32.1615 20.3278 32.4779C20.3278 32.8083 20.1003 33.0262 19.7733 33.0262C19.4463 33.0262 19.2188 32.8083 19.2188 32.4779ZM19.3538 34.0315H20.1856V38.9172H19.3538V34.0315ZM21.3145 34.6994H21.9899L21.9827 34.7064V38.9244H22.8146V34.7064H23.8597V34.0386H22.8146V33.2653C22.8146 32.6326 23.0421 32.3022 23.5184 32.3022C23.689 32.3022 23.8881 32.3444 24.073 32.4288L24.2578 31.8101C24.0232 31.7117 23.7246 31.6484 23.426 31.6484C22.4449 31.6484 21.9899 32.2671 21.9899 33.2583V34.0386L21.3145 34.0808V34.6994ZM24.3359 36.485C24.3359 34.9033 25.4166 33.9121 26.5683 33.9121C27.8267 33.9121 28.5377 34.8119 28.5377 36.2038C28.5377 36.3774 28.5184 36.5382 28.5043 36.6563L28.5021 36.6748H25.1678C25.2246 37.7153 25.8716 38.3831 26.8029 38.3831C27.2864 38.3831 27.6774 38.2425 28.04 37.9965L28.3386 38.5378C27.8978 38.819 27.3717 39.0439 26.7034 39.0439C25.3953 39.0439 24.3359 38.1019 24.3359 36.485ZM27.8054 36.0773C27.8054 35.1002 27.3504 34.5659 26.5754 34.5659C25.8716 34.5659 25.2531 35.1212 25.1535 36.0773H27.8054ZM30.1734 37.7786C29.8463 37.7786 29.5762 38.0387 29.5762 38.4183C29.5762 38.7838 29.8463 39.0369 30.1734 39.0369C30.5004 39.0369 30.7706 38.7979 30.7706 38.4183C30.7706 38.0387 30.5004 37.7786 30.1734 37.7786ZM31.7949 36.485C31.7949 34.8541 32.9111 33.9121 34.1766 33.9121C34.8236 33.9121 35.2715 34.1792 35.627 34.4886L35.2004 35.0299C34.9089 34.7768 34.6103 34.594 34.2193 34.594C33.3164 34.594 32.6623 35.3603 32.6623 36.485C32.6623 37.6098 33.2808 38.355 34.1908 38.355C34.6458 38.355 35.044 38.1511 35.3568 37.8699L35.7194 38.4183C35.2715 38.8119 34.7098 39.0369 34.1197 39.0369C32.8116 39.0369 31.802 38.1019 31.802 36.478L31.7949 36.485ZM36.793 31.761V37.9473C36.793 38.6432 37.0489 39.0369 37.6674 39.0369C37.8949 39.0369 38.03 39.0088 38.1509 38.9666L38.03 38.3339C37.9447 38.355 37.9021 38.355 37.8594 38.355C37.7314 38.355 37.6248 38.2566 37.6248 38.0035V31.761H36.793ZM39.252 32.4779C39.252 32.1615 39.4795 31.9436 39.8065 31.9436C40.1335 31.9436 40.361 32.1615 40.361 32.4779C40.361 32.8083 40.1335 33.0262 39.8065 33.0262C39.4795 33.0262 39.252 32.8083 39.252 32.4779ZM39.387 34.0315H40.2188V38.9172H39.387V34.0315ZM42.5724 34.0386H41.8899L41.8828 34.0316V38.9174H42.7146V35.3743C43.2194 34.8822 43.5607 34.6292 44.0725 34.6292C44.7266 34.6292 45.011 35.0158 45.011 35.9367V38.9244H45.8428V35.8313C45.8428 34.5799 45.3665 33.9121 44.3285 33.9121C43.6531 33.9121 43.1483 34.2847 42.672 34.7416H42.6435L42.5724 34.0386ZM47.3145 32.4779C47.3145 32.1615 47.542 31.9436 47.869 31.9436C48.196 31.9436 48.4235 32.1615 48.4235 32.4779C48.4235 32.8083 48.196 33.0262 47.869 33.0262C47.542 33.0262 47.3145 32.8083 47.3145 32.4779ZM47.4495 34.0315H48.2813V38.9172H47.4495V34.0315ZM51.9637 33.9121C50.6982 33.9121 49.582 34.8541 49.582 36.485L49.5891 36.478C49.5891 38.1019 50.5987 39.0369 51.9069 39.0369C52.4969 39.0369 53.0586 38.8119 53.5065 38.4183L53.1439 37.8699C52.8311 38.1511 52.433 38.355 51.9779 38.355C51.0679 38.355 50.4494 37.6098 50.4494 36.485C50.4494 35.3603 51.1035 34.594 52.0064 34.594C52.3974 34.594 52.696 34.7768 52.9875 35.0299L53.4141 34.4886C53.0586 34.1792 52.6107 33.9121 51.9637 33.9121ZM1.91246 40H0.518996C0.234615 40 0 39.7751 0 39.4868V32.4218C0 32.1406 0.227505 31.9086 0.518996 31.9086H1.91246C1.91246 32.2109 1.66363 32.4499 1.36503 32.4499H0.696734V39.4587H1.37214C1.67074 39.4587 1.91246 39.6977 1.91246 39.993V40ZM63.4807 31.8875H62.0872L62.0801 31.8946C62.0801 32.1898 62.3218 32.4288 62.6204 32.4288H63.2958V39.4376H62.6346C62.336 39.4376 62.0872 39.6766 62.0872 39.9789H63.4807C63.7721 39.9789 63.9996 39.7469 63.9996 39.4657V32.4007C63.9996 32.1125 63.765 31.8875 63.4807 31.8875Z" fill="#2B2B2B"/>
</g>
<defs>
<clipPath id="clip0_111_3701">
<rect width="64" height="40" fill="white"/>
</clipPath>
</defs>
</svg>
