<svg width="586" height="219" viewBox="0 0 586 219" fill="none" xmlns="http://www.w3.org/2000/svg">
<path d="M40.5599 136.221C38.2162 136.221 36.3281 137.884 36.3281 139.949V142.931C36.3281 195.469 89.4531 235.733 140.169 187.095C141.797 185.547 144.466 185.432 146.224 186.866C147.721 188.128 147.982 190.135 146.81 191.627C140.885 199.312 121.484 218.01 80.599 218.01C29.7526 218.01 0 185.432 0 142.931C0 100.43 29.7526 68.0815 80.599 68.0815C141.406 68.0815 148.958 109.091 148.958 125.151V132.492C148.958 134.557 147.07 136.221 144.727 136.221H40.5599ZM42.1224 125.151H105.078C107.422 125.151 109.375 123.43 109.31 121.308C108.268 92.1711 101.888 78.2909 80.9896 78.2909C60.0911 78.2909 43.099 87.6973 37.9557 120.964C37.6302 123.143 39.5833 125.151 42.1224 125.151Z" fill="white" fill-opacity="0.3"/>
<path d="M211.068 24.6059V213.938C192.839 213.938 178.061 200.918 178.061 184.859V27.9325C178.061 15.7157 171.68 5.85045 148.959 5.85045V0.860474H184.115C199.024 0.860474 211.068 11.4713 211.068 24.6059Z" fill="white" fill-opacity="0.3"/>
<path d="M299.934 67.2211V213.938H296.874C280.337 213.938 266.861 202.122 266.861 187.497V96.9315C266.861 83.5675 255.988 70.7198 237.434 68.7123V67.2784H299.869L299.934 67.2211Z" fill="white" fill-opacity="0.3"/>
<path d="M395.117 36.6505V68.0816H427.473V79.1514H395.117V213.881C376.887 213.881 362.109 200.861 362.109 184.801V79.1514H330.729V68.0816H362.109V45.1392C362.109 20.9923 375.976 0 417.968 0C429.166 0 438.476 2.06482 446.354 4.93262C444.4 6.99744 442.382 9.0049 440.755 11.0697C435.156 9.0049 428.515 7.85778 420.963 7.85778C399.153 7.85778 395.182 16.8627 395.182 36.6505H395.117Z" fill="white" fill-opacity="0.3"/>
<path d="M476.958 136.22C474.615 136.22 472.727 137.884 472.727 139.949V142.931C472.727 195.469 525.852 235.733 576.568 187.095C578.195 185.547 580.865 185.432 582.622 186.866C584.12 188.128 584.38 190.135 583.208 191.684C577.284 199.369 557.883 218.068 516.997 218.068C466.086 218.068 436.398 185.489 436.398 142.988C436.398 100.488 466.151 68.1962 516.997 68.1962C577.805 68.1962 585.357 109.206 585.357 125.265V132.607C585.357 134.672 583.469 136.335 581.125 136.335H476.893L476.958 136.22ZM478.456 125.151H541.412C543.755 125.151 545.708 123.43 545.643 121.308C544.602 92.171 538.221 78.2908 517.323 78.2908C496.424 78.2908 479.432 87.6972 474.289 120.964C473.964 123.143 475.982 125.151 478.456 125.151Z" fill="white" fill-opacity="0.3"/>
<path d="M243.355 1.16959C272.665 -1.18971 295.754 13.5991 295.497 33.2791C295.433 41.7957 290.816 46.7444 281.965 47.7802C273.178 48.816 265.033 44.7304 261.506 37.4223C257.722 29.4812 254.258 21.4251 250.41 13.484C248.486 9.51347 245.921 5.71557 243.291 1.22714L243.355 1.16959Z" fill="white" fill-opacity="0.3"/>
</svg>
