<svg width="24" height="24" viewBox="0 0 24 24" fill="none" xmlns="http://www.w3.org/2000/svg">
<path d="M7.5232 21.5037C9.36781 21.5171 11.1967 21.1637 12.9036 20.4643C14.6105 19.7649 16.1614 18.7332 17.4663 17.4293C18.7711 16.1255 19.8039 14.5753 20.5046 12.8689C21.2053 11.1625 21.5599 9.33385 21.5479 7.48923C21.5479 7.27467 21.5479 7.06011 21.5377 6.85577C22.5028 6.15641 23.3365 5.29163 24 4.30149C23.0999 4.69811 22.1463 4.95976 21.1699 5.07799C22.1994 4.46374 22.9696 3.495 23.3359 2.35343C22.3683 2.92392 21.3113 3.32692 20.2094 3.54542C19.5326 2.82849 18.6562 2.33101 17.6937 2.11725C16.7311 1.90349 15.7266 1.98327 14.8099 2.3463C13.8932 2.70933 13.1063 3.33891 12.5511 4.15371C11.9959 4.96851 11.6977 5.93108 11.6952 6.91707C11.6921 7.29579 11.7368 7.67338 11.828 8.04095C9.86745 7.94438 7.94921 7.43591 6.19822 6.54869C4.44724 5.66145 2.90276 4.41535 1.66539 2.89153C1.03681 3.97597 0.845392 5.25928 1.13015 6.47995C1.41491 7.70062 2.15441 8.76677 3.19796 9.46113C2.41691 9.43959 1.6527 9.22925 0.970626 8.84811V8.90941C0.972907 10.0466 1.36757 11.1481 2.08796 12.0279C2.80835 12.9078 3.81032 13.5121 4.92465 13.7387C4.50166 13.8531 4.06526 13.9104 3.62708 13.909C3.31487 13.9093 3.00342 13.8785 2.69732 13.817C3.00995 14.7964 3.62155 15.6532 4.4462 16.2672C5.27085 16.8811 6.26712 17.2212 7.29502 17.2398C5.54826 18.6069 3.39312 19.3481 1.17497 19.3445C0.782168 19.3464 0.389665 19.3225 0 19.273C2.23725 20.7328 4.85183 21.508 7.5232 21.5037Z" fill="#1D9BF0"/>
</svg>
